<?xml version="1.0" encoding="utf-8"?>
<!-- Svg Vector Icons : http://www.onlinewebfonts.com/icon -->
<!DOCTYPE svg PUBLIC "-//W3C//DTD SVG 1.1//EN" "http://www.w3.org/Graphics/SVG/1.1/DTD/svg11.dtd">
<svg version="1.1" xmlns="http://www.w3.org/2000/svg" xmlns:xlink="http://www.w3.org/1999/xlink" x="0px" y="0px" viewBox="0 0 1000 1000" enable-background="new 0 0 1000 1000" xml:space="preserve">
<metadata> Svg Vector Icons : http://www.onlinewebfonts.com/icon </metadata>
<g><path d="M966.9,918.1L653.5,604.6c54.3-63.1,87.5-144.9,87.5-234.5C740.9,171.5,579.4,10,380.8,10C182.3,10,20.7,171.5,20.7,370.1c0,198.5,161.5,360.1,360.1,360.1c78.7,0,151.3-25.7,210.5-68.6l316,316.1c8.2,8.2,19,12.3,29.8,12.3c10.8,0,21.5-4.1,29.8-12.3C983.4,961.2,983.4,934.6,966.9,918.1z M105,370.1C105,218,228.7,94.2,380.8,94.2C533,94.2,656.7,218,656.7,370.1C656.7,522.2,533,646,380.8,646C228.7,646,105,522.2,105,370.1z"/></g>
</svg>